<svg preserveAspectRatio="none" width="100%" height="100%" overflow="visible" style="display: block;" viewBox="0 0 46 44" fill="none" xmlns="http://www.w3.org/2000/svg">
<g id="Frame 1618867470">
<g id="Union">
<path d="M17.1477 10C19.3716 10 21.3894 11.3821 22.3036 13.5314L24.9481 19.7485C25.9531 22.1109 28.1024 23.6766 30.5181 23.8453H35.8933C37.8893 23.8452 39.5077 22.1213 39.5077 19.9948C39.5076 17.8684 37.8893 16.1444 35.8933 16.1443H28.9506C27.3574 16.1442 26.066 14.7751 26.066 13.086C26.066 11.3968 27.3574 10.0277 28.9506 10.0277H37.6618C42.1921 10.0277 45.8649 13.9401 45.865 18.7663C45.8649 21.5347 44.9184 24.1115 42.936 26.0616C45.6888 28.1859 46.3211 32.7345 45.865 35.7677C45.4088 38.8009 42.5307 44 36.0768 44L30.994 43.9991C29.0247 43.9959 27.1689 42.5827 25.6536 41.0459C24.1384 39.5091 21.1419 38.3335 18.309 38.3335H15.0687C13.6106 38.3335 12.4287 37.0802 12.4285 35.5344C12.4285 33.9884 13.6105 32.7343 15.0687 32.7343H18.309C24.86 32.7343 28.0598 34.5549 29.8414 36.4442C31.6229 38.3335 33.8101 37.9913 35.5149 37.9913C38.6165 37.9913 39.5077 35.972 39.5077 34.0827C39.5077 31.7221 37.5676 29.9629 35.5149 29.9628C33.4503 29.9628 31.3857 29.9579 29.3211 29.9638C25.1887 29.9637 21.4474 27.3713 19.7888 23.3584L17.4122 17.7822C17.3534 17.6444 17.2234 17.5554 17.0807 17.5554C16.9419 17.5555 16.8153 17.6398 16.7545 17.7721L10.9314 30.4535C10.478 31.4406 9.36681 31.8672 8.4226 31.4164C7.06179 30.7662 5.5154 30.7023 4.11136 31.2393L3.02224 31.6562L12.1388 13.2132C13.1152 11.2381 15.0444 10.0001 17.1477 10Z" fill="url(#paint0_linear_0_2519)"/>
<path d="M0.349902 38.2385C1.22403 36.2397 3.46136 35.3713 5.34662 36.298C7.23177 37.2248 8.05172 39.596 7.17777 41.5947C6.30366 43.5935 4.06633 44.4628 2.18105 43.5361C0.295838 42.6093 -0.524188 40.2373 0.349902 38.2385Z" fill="url(#paint1_linear_0_2519)"/>
</g>
</g>
<defs>
<linearGradient id="paint0_linear_0_2519" x1="0.000217476" y1="27" x2="44.2507" y2="27" gradientUnits="userSpaceOnUse">
<stop stop-color="#1166DC"/>
<stop offset="1" stop-color="#64FFA3"/>
</linearGradient>
<linearGradient id="paint1_linear_0_2519" x1="0.000217476" y1="27" x2="44.2507" y2="27" gradientUnits="userSpaceOnUse">
<stop stop-color="#1166DC"/>
<stop offset="1" stop-color="#64FFA3"/>
</linearGradient>
</defs>
</svg>
