<svg preserveAspectRatio="none" width="100%" height="100%" overflow="visible" style="display: block;" viewBox="0 0 113.086 5.59371" fill="none" xmlns="http://www.w3.org/2000/svg">
<g id="Innovate. Invest. Thrive">
<path id="Vector" d="M110.499 5.41891V0.174903H113.086V0.769224H111.163V1.88795H112.678V2.48227H111.163V4.82459H113.086V5.41891H110.499Z" fill="var(--fill-0, white)"/>
<path id="Vector_2" d="M106.458 5.59371L104.349 0.174903H105.048L106.283 3.33296C106.322 3.43396 106.357 3.53107 106.388 3.6243C106.423 3.71364 106.456 3.81852 106.487 3.93894C106.518 3.81852 106.549 3.71364 106.58 3.6243C106.615 3.53107 106.652 3.43396 106.691 3.33296L107.92 0.174903H108.579L106.469 5.59371H106.458Z" fill="var(--fill-0, white)"/>
<path id="Vector_3" d="M101.695 5.41891V0.174903H102.359V5.41891H101.695Z" fill="var(--fill-0, white)"/>
<path id="Vector_4" d="M95.9759 5.41891V0.174903H97.2927C97.6229 0.174903 97.9065 0.240938 98.1434 0.373009C98.3804 0.505081 98.563 0.679881 98.6911 0.89741C98.8232 1.11106 98.8893 1.34606 98.8893 1.60244C98.8893 1.88989 98.8077 2.1482 98.6445 2.37739C98.4814 2.60657 98.258 2.77554 97.9745 2.88431L99.7341 5.41891H98.9592L97.2927 3.00667H96.6402V5.41891H95.9759ZM96.6402 2.44731H97.2927C97.518 2.44731 97.7006 2.40652 97.8405 2.32495C97.9842 2.23949 98.0891 2.13267 98.1551 2.00448C98.225 1.87241 98.26 1.73839 98.26 1.60244C98.26 1.35772 98.1706 1.15767 97.9919 1.00229C97.8171 0.846913 97.5841 0.769224 97.2927 0.769224H96.6402V2.44731Z" fill="var(--fill-0, white)"/>
<path id="Vector_5" d="M90.1775 5.41891V0.174903H90.8417V1.88795H92.7062V0.174903H93.3705V5.41891H92.7062V2.48227H90.8417V5.41891H90.1775Z" fill="var(--fill-0, white)"/>
<path id="Vector_6" d="M84.5811 0.769224V0.174903H88.0422V0.769224H86.6438V5.41891H85.9795V0.769224H84.5811Z" fill="var(--fill-0, white)"/>
<path id="Vector_7" d="M79.5321 5.48847C79.4039 5.48847 79.2952 5.44574 79.2058 5.36028C79.1204 5.27094 79.0776 5.16217 79.0776 5.03399C79.0776 4.9058 79.1204 4.79898 79.2058 4.71352C79.2952 4.62418 79.4039 4.57951 79.5321 4.57951C79.6642 4.57951 79.773 4.62418 79.8584 4.71352C79.9439 4.79898 79.9866 4.9058 79.9866 5.03399C79.9866 5.16217 79.9439 5.27094 79.8584 5.36028C79.773 5.44574 79.6642 5.48847 79.5321 5.48847Z" fill="var(--fill-0, white)"/>
<path id="Vector_8" d="M74.6371 0.769224V0.174903H78.0981V0.769224H76.6997V5.41891H76.0355V0.769224H74.6371Z" fill="var(--fill-0, white)"/>
<path id="Vector_9" d="M71.4322 5.48865C71.1215 5.48865 70.8398 5.4265 70.5874 5.3022C70.3387 5.17789 70.1406 5.0264 69.993 4.84771L70.1853 4.04363C70.2941 4.26116 70.4572 4.45733 70.6748 4.63213C70.8923 4.80693 71.1525 4.89433 71.4555 4.89433C71.7313 4.89433 71.9586 4.80693 72.1372 4.63213C72.3198 4.45733 72.4111 4.24174 72.4111 3.98537C72.4111 3.79891 72.3664 3.64548 72.2771 3.52506C72.1877 3.40464 72.0868 3.30947 71.9741 3.23955C71.8615 3.16963 71.7721 3.11913 71.7061 3.08806L71.0651 2.76176C70.9641 2.70738 70.8379 2.63164 70.6864 2.53452C70.5388 2.43741 70.4087 2.3034 70.296 2.13248C70.1834 1.96157 70.127 1.74015 70.127 1.46824C70.127 1.2041 70.1873 0.969091 70.3077 0.763215C70.432 0.557339 70.6029 0.396134 70.8204 0.279601C71.0418 0.163067 71.2943 0.104801 71.5779 0.104801C71.8576 0.104801 72.1042 0.155298 72.3179 0.256294C72.5315 0.353405 72.6986 0.454401 72.819 0.559281L72.6267 1.36336C72.5296 1.20022 72.3859 1.04678 72.1955 0.903055C72.0052 0.75933 71.7896 0.687468 71.5488 0.687468C71.3157 0.687468 71.1292 0.757388 70.9894 0.897228C70.8496 1.03318 70.7796 1.20216 70.7796 1.40415C70.7796 1.55953 70.8146 1.68771 70.8845 1.78871C70.9583 1.88971 71.0399 1.96934 71.1292 2.0276C71.2225 2.08587 71.2982 2.13054 71.3565 2.16162L72.0091 2.48791C72.0868 2.52676 72.1839 2.58114 72.3004 2.65106C72.4208 2.72098 72.5393 2.81421 72.6558 2.93074C72.7724 3.04339 72.8695 3.18323 72.9472 3.35026C73.0248 3.51341 73.0637 3.71151 73.0637 3.94458C73.0637 4.24368 72.9918 4.50977 72.8481 4.74283C72.7083 4.9759 72.516 5.15847 72.2713 5.29054C72.0265 5.42261 71.7469 5.48865 71.4322 5.48865Z" fill="var(--fill-0, white)"/>
<path id="Vector_10" d="M65.5124 5.41891V0.174903H68.0995V0.769224H66.1767V1.88795H67.6916V2.48227H66.1767V4.82459H68.0995V5.41891H65.5124Z" fill="var(--fill-0, white)"/>
<path id="Vector_11" d="M61.4713 5.59371L59.3621 0.174903H60.0613L61.2965 3.33296C61.3354 3.43396 61.3703 3.53107 61.4014 3.6243C61.4364 3.71364 61.4694 3.81852 61.5005 3.93894C61.5316 3.81852 61.5626 3.71364 61.5937 3.6243C61.6287 3.53107 61.6656 3.43396 61.7044 3.33296L62.9338 0.174903H63.5923L61.483 5.59371H61.4713Z" fill="var(--fill-0, white)"/>
<path id="Vector_12" d="M57.4395 5.59371L53.7687 1.66071V5.41891H53.1394V0.00010258L56.8102 3.93311V0.174903H57.4395V5.59371Z" fill="var(--fill-0, white)"/>
<path id="Vector_13" d="M49.8209 5.41891V0.174903H50.4851V5.41891H49.8209Z" fill="var(--fill-0, white)"/>
<path id="Vector_14" d="M44.2475 5.48847C44.1193 5.48847 44.0106 5.44574 43.9212 5.36028C43.8358 5.27094 43.793 5.16217 43.793 5.03399C43.793 4.9058 43.8358 4.79898 43.9212 4.71352C44.0106 4.62418 44.1193 4.57951 44.2475 4.57951C44.3796 4.57951 44.4883 4.62418 44.5738 4.71352C44.6593 4.79898 44.702 4.9058 44.702 5.03399C44.702 5.16217 44.6593 5.27094 44.5738 5.36028C44.4883 5.44574 44.3796 5.48847 44.2475 5.48847Z" fill="var(--fill-0, white)"/>
<path id="Vector_15" d="M39.4057 5.41891V0.174903H41.9928V0.769224H40.07V1.88795H41.5849V2.48227H40.07V4.82459H41.9928V5.41891H39.4057Z" fill="var(--fill-0, white)"/>
<path id="Vector_16" d="M33.8094 0.769224V0.174903H37.2704V0.769224H35.872V5.41891H35.2078V0.769224H33.8094Z" fill="var(--fill-0, white)"/>
<path id="Vector_17" d="M28.5499 5.41891L30.7699 0.00010258H30.7815L33.0015 5.41891H32.2964L31.6788 3.86319H29.8434L29.22 5.41891H28.5499ZM30.0648 3.30965H31.4574L31.0437 2.27251C30.9932 2.14044 30.9447 2.01031 30.898 1.88212C30.8514 1.75393 30.8048 1.6005 30.7582 1.42181C30.7116 1.6005 30.6669 1.75393 30.6242 1.88212C30.5815 2.00642 30.5329 2.13655 30.4785 2.27251L30.0648 3.30965Z" fill="var(--fill-0, white)"/>
<path id="Vector_18" d="M25.6628 5.59371L23.5535 0.174903H24.2527L25.488 3.33296C25.5268 3.43396 25.5618 3.53107 25.5929 3.6243C25.6278 3.71364 25.6608 3.81852 25.6919 3.93894C25.723 3.81852 25.7541 3.71364 25.7851 3.6243C25.8201 3.53107 25.857 3.43396 25.8958 3.33296L27.1253 0.174903H27.7837L25.6744 5.59371H25.6628Z" fill="var(--fill-0, white)"/>
<path id="Vector_19" d="M19.4471 5.52397C19.0703 5.52397 18.7149 5.45405 18.3808 5.31421C18.0506 5.17049 17.7593 4.97432 17.5068 4.72572C17.2582 4.47711 17.062 4.18772 16.9183 3.85754C16.7785 3.52737 16.7085 3.17388 16.7085 2.79709C16.7085 2.4203 16.7785 2.06681 16.9183 1.73663C17.062 1.40646 17.2582 1.11706 17.5068 0.868459C17.7593 0.619854 18.0506 0.425632 18.3808 0.285792C18.7149 0.142067 19.0703 0.0702048 19.4471 0.0702048C19.8278 0.0702048 20.1832 0.142067 20.5134 0.285792C20.8435 0.425632 21.1329 0.619854 21.3815 0.868459C21.634 1.11706 21.8302 1.40646 21.97 1.73663C22.1137 2.06681 22.1856 2.4203 22.1856 2.79709C22.1856 3.17388 22.1137 3.52737 21.97 3.85754C21.8302 4.18772 21.634 4.47711 21.3815 4.72572C21.1329 4.97432 20.8435 5.17049 20.5134 5.31421C20.1832 5.45405 19.8278 5.52397 19.4471 5.52397ZM19.4471 4.89469C19.8316 4.89469 20.1793 4.80147 20.49 4.61501C20.8008 4.42467 21.0455 4.17024 21.2242 3.85172C21.4068 3.53319 21.4981 3.18165 21.4981 2.79709C21.4981 2.40864 21.4068 2.0571 21.2242 1.74246C21.0455 1.42394 20.8008 1.17145 20.49 0.984993C20.1793 0.794655 19.8316 0.699486 19.4471 0.699486C19.0625 0.699486 18.7149 0.794655 18.4041 0.984993C18.0972 1.17145 17.8525 1.42394 17.6699 1.74246C17.4874 2.0571 17.3961 2.40864 17.3961 2.79709C17.3961 3.18165 17.4874 3.53319 17.6699 3.85172C17.8525 4.17024 18.0972 4.42467 18.4041 4.61501C18.7149 4.80147 19.0625 4.89469 19.4471 4.89469Z" fill="var(--fill-0, white)"/>
<path id="Vector_20" d="M14.506 5.59371L10.8352 1.66071V5.41891H10.2059V0.00010258L13.8767 3.93311V0.174903H14.506V5.59371Z" fill="var(--fill-0, white)"/>
<path id="Vector_21" d="M7.61865 5.59371L3.94784 1.66071V5.41891H3.31856V0.00010258L6.98937 3.93311V0.174903H7.61865V5.59371Z" fill="var(--fill-0, white)"/>
<path id="Vector_22" d="M8.65757e-05 5.41891V0.174903H0.664328V5.41891H8.65757e-05Z" fill="var(--fill-0, white)"/>
</g>
</svg>
